# xmcd
#
# Track frame offsets:
#	182
#	23052
#	38312
#	125250
#	138405
#	176822
#	194937
#	251202
#	289120
#	311170
#
# Disc length: 4229 seconds
#
# Revision: 0
# Processed by: cddbd v1.5.2PL0 Copyright (c) Steve Scherf et al.
# Submitted via: EasyCDDAExtractor 16.0.6.1
#
DISCID=9410830a
DTITLE=Φιρφιρής Διονύσιος π. - Άγιον Όρος 1000 χρόνια 02
DYEAR=2012
DGENRE=Βυζ. Εκκλησιαστική
TTITLE0=Θεοτόκε Παρθένε [αργόν, Πέτρου Μπερεκέτη, α']
TTITLE1=Καταβασία αργή της Θ' ωδής Κοιμήσεως Θεοτόκου
TTITLE2=Δύναμις [Καλογήρου, με κράτημα, α']
TTITLE3=Πάσα πνοή [αργόν, δ']
TTITLE4=Κύριε εκέκραξα και κατευθυνθήτω [αργόν, Ιακώβου Πρωτοψ., β']
TTITLE5=Τρισάγιον Αποστόλου [β']
TTITLE6=Δοξολογία [αργή, η']
TTITLE7=Στίχοι από Ανοιξαντάρια-Πάντα εν σοφία [αργ.]-ΔόξαΠατρί, Αλληλούϊα
TTITLE8=Πάσα πνοή [αργόν]-Αινείτε Αυτόν [αργόν]
TTITLE9=Πλούσιοι επτώχευσαν
EXTD=
EXTT0=
EXTT1=
EXTT2=
EXTT3=
EXTT4=
EXTT5=
EXTT6=
EXTT7=
EXTT8=
EXTT9=
PLAYORDER=
